<svg version="1.0" xmlns="http://www.w3.org/2000/svg"
 width="600.000000pt" height="600.000000pt" viewBox="0 0 600.000000 600.000000"
 preserveAspectRatio="xMidYMid meet">

<g transform="translate(0.000000,600.000000) scale(0.100000,-0.100000)"
fill="rgb(50, 50, 60)" stroke="none">
<path d="M1470 4801 c0 -4 11 -20 25 -35 31 -34 19 -34 -17 1 -15 14 -30 25
-32 22 -3 -3 -9 -685 -7 -881 0 -44 9 -47 41 -13 13 14 28 25 33 25 5 0 -2
-12 -17 -26 -14 -15 -26 -31 -26 -35 0 -14 104 -11 118 3 9 9 12 8 12 -4 0
-36 265 -26 343 14 28 14 44 32 60 66 22 49 30 138 14 160 -5 7 -7 40 -4 75 7
73 -12 112 -71 152 -22 15 -30 25 -20 25 28 0 76 48 93 93 11 31 15 64 12 124
-7 142 -65 204 -217 233 -76 14 -207 13 -214 -2 -5 -10 -7 -10 -12 0 -6 14
-114 17 -114 3z m176 -123 c24 5 15 -14 -12 -27 -22 -10 -25 -16 -19 -44 l6
-32 -35 40 c-35 40 -49 68 -22 46 28 -24 62 15 39 45 -5 5 0 0 11 -11 10 -11
25 -19 32 -17z m109 -64 c11 -8 32 -42 46 -77 23 -56 28 -62 59 -67 l35 -5
-25 -20 c-24 -19 -31 -65 -9 -65 5 0 0 -9 -11 -20 -11 -11 -20 -30 -20 -42 -1
-20 -2 -21 -11 -6 -5 10 -16 15 -24 12 -10 -4 -15 0 -15 11 0 12 -5 15 -16 11
-10 -4 -14 -1 -12 6 7 19 38 22 38 4 0 -16 12 -21 22 -10 10 9 -23 64 -38 64
-8 0 -23 -9 -33 -19 -19 -19 -20 -19 -52 8 -24 20 -32 36 -32 59 0 23 -3 29
-12 22 -9 -7 -24 0 -51 25 l-38 35 37 0 c27 0 37 4 37 16 0 8 5 12 10 9 6 -4
8 -11 5 -16 -4 -5 -1 -9 4 -9 6 0 12 12 13 28 1 24 4 45 7 63 2 10 65 -3 86
-17z m-281 -189 c3 -8 1 -15 -4 -15 -6 0 -10 7 -10 15 0 8 2 15 4 15 2 0 6 -7
10 -15z m444 -163 c6 -18 -15 -14 -22 4 -4 10 -1 14 6 12 6 -2 14 -10 16 -16z
m-161 -26 c26 -23 28 -29 28 -106 0 -74 -2 -84 -24 -101 -13 -11 -39 -19 -60
-19 l-36 0 0 59 c0 33 3 63 8 67 4 4 7 31 7 60 0 52 3 56 42 63 4 0 20 -10 35
-23z m-117 -116 c0 -5 -7 -7 -15 -4 -8 4 -15 8 -15 10 0 2 7 4 15 4 8 0 15 -4
15 -10z m-14 -52 c-23 -32 -20 -53 11 -74 20 -13 24 -19 13 -22 -8 -3 -26 -14
-40 -26 -14 -11 -19 -14 -12 -6 18 20 15 43 -7 57 -15 10 -21 10 -24 0 -2 -7
-7 -10 -10 -6 -4 3 12 26 34 52 44 50 61 62 35 25z"/>
<path d="M1764 4439 l-19 -22 30 7 c36 9 39 12 30 25 -9 16 -20 13 -41 -10z"/>
<path d="M1835 4450 c-3 -5 -1 -10 4 -10 6 0 11 5 11 10 0 6 -2 10 -4 10 -3 0
-8 -4 -11 -10z"/>
<path d="M1686 4433 c-11 -11 -6 -23 8 -23 8 0 17 4 20 9 7 10 -19 23 -28 14z"/>
<path d="M2082 4631 c0 -23 4 -41 8 -41 13 0 50 37 50 51 0 10 3 10 12 1 9 -9
7 -16 -10 -32 -11 -11 -26 -20 -32 -20 -5 0 -10 -5 -10 -11 0 -5 -4 -7 -10 -4
-6 4 -9 -130 -10 -368 l0 -374 157 -6 c87 -4 186 -7 221 -7 l62 0 0 90 c0 64
-4 92 -12 95 -7 2 -61 7 -120 10 l-106 7 -4 46 c-1 26 -2 61 0 79 3 31 4 31
65 35 34 2 70 0 79 -4 10 -5 29 -6 43 -2 24 6 25 9 25 80 0 62 -3 75 -19 84
-13 6 -28 7 -44 1 -16 -6 -28 -6 -35 1 -6 6 -32 10 -57 10 -39 -2 -47 1 -54
20 -9 25 -6 92 5 109 4 7 47 9 118 7 l111 -3 0 79 c0 79 0 80 -29 87 -16 5
-114 11 -217 14 l-188 6 1 -40z m65 -263 c-3 -7 -5 -2 -5 12 0 14 2 19 5 13 2
-7 2 -19 0 -25z"/>
<path d="M2601 4603 c0 -10 -3 -32 -7 -48 -3 -17 -2 -46 3 -64 9 -33 10 -34
63 -35 53 -1 54 -1 62 -36 6 -30 13 -316 8 -345 -6 -32 3 -232 11 -239 17 -19
51 -13 61 10 6 12 23 24 39 28 21 4 29 11 29 27 0 13 8 31 18 42 13 15 17 38
18 101 0 44 4 107 8 140 5 38 5 56 -2 52 -9 -6 2 66 14 85 2 4 -4 15 -13 25
-13 12 -14 19 -6 21 7 3 15 20 19 39 6 34 7 34 60 34 l54 0 0 80 c0 76 -1 80
-24 86 -13 3 -33 1 -44 -5 -26 -14 -211 -9 -239 7 -12 7 -46 12 -77 12 -45 0
-55 -3 -55 -17z m72 -120 c-13 -2 -33 -2 -45 0 -13 2 -3 4 22 4 25 0 35 -2 23
-4z m204 -119 c-3 -3 -12 -4 -19 -1 -8 3 -5 6 6 6 11 1 17 -2 13 -5z"/>
<path d="M3114 4518 l1 -83 54 0 c52 0 55 -1 63 -30 7 -25 13 -316 8 -350 -4
-22 1 -211 6 -227 8 -27 53 -23 63 6 6 14 20 25 39 29 24 5 30 11 30 32 0 14
6 31 15 38 19 15 30 64 17 72 -6 4 -8 10 -6 14 3 4 6 36 7 69 1 34 5 62 8 62
3 0 7 16 8 35 2 19 -1 35 -6 35 -5 0 -4 20 1 46 8 38 7 48 -8 65 -16 17 -16
19 -1 19 13 0 17 9 17 35 0 34 2 35 38 36 83 2 77 -4 77 78 0 74 0 75 -29 82
-16 5 -37 4 -46 -1 -32 -17 -198 -13 -227 6 -12 8 -47 14 -76 14 l-54 0 1 -82z
m90 -56 c2 -4 -13 -6 -35 -4 -21 2 -39 6 -39 8 0 7 69 4 74 -4z m179 -119 c-7
-2 -19 -2 -25 0 -7 3 -2 5 12 5 14 0 19 -2 13 -5z"/>
<path d="M3604 4588 c1 -7 5 -19 9 -25 5 -8 4 -13 -2 -13 -6 0 -11 -4 -11 -10
0 -19 29 -10 48 15 12 15 23 21 27 15 3 -5 -1 -13 -9 -16 -9 -3 -16 -12 -16
-20 0 -8 -3 -13 -7 -12 -5 0 -15 -2 -24 -6 -14 -6 -16 -46 -18 -360 l-1 -353
52 -6 c29 -4 122 -7 206 -7 l153 0 -3 88 -3 87 -105 8 c-57 4 -106 9 -107 11
-6 6 -6 136 -1 142 3 3 46 5 96 5 l91 1 6 41 c3 23 1 58 -3 77 -8 33 -10 35
-49 35 -23 0 -45 3 -49 8 -4 4 -26 7 -48 7 -34 0 -43 4 -53 25 -6 14 -7 25 -2
25 6 0 9 10 8 23 -5 60 -7 59 92 54 132 -6 129 -9 129 79 0 45 -4 76 -12 80
-6 4 -98 9 -204 11 -155 4 -192 2 -190 -9z m63 -280 c-3 -8 -6 -5 -6 6 -1 11
2 17 5 13 3 -3 4 -12 1 -19z"/>
<path d="M4110 4560 c0 -5 9 -19 20 -30 11 -11 16 -20 10 -20 -5 0 -15 9 -22
20 -7 11 -16 20 -20 20 -5 0 -8 -173 -8 -385 l0 -385 85 0 85 0 0 83 c1 84 8
192 15 215 6 17 71 15 89 -4 20 -19 16 1 25 -136 11 -158 18 -168 112 -168 71
0 71 0 65 25 -17 66 -38 94 -48 64 -3 -9 -10 -8 -25 2 -18 11 -24 11 -37 -1
-20 -15 -25 -12 -28 21 -3 20 1 24 20 22 12 -2 22 2 22 7 0 6 6 10 14 10 8 0
17 6 19 13 4 7 8 3 12 -10 4 -13 11 -23 15 -23 10 0 20 57 16 90 -2 14 -4 45
-5 69 -1 35 -7 49 -35 77 -30 30 -32 34 -15 39 11 4 30 23 44 43 22 32 25 48
25 119 0 138 -34 190 -143 219 -66 17 -207 19 -207 2 0 -9 -3 -9 -12 0 -14 14
-88 16 -88 2z m126 -95 c19 -21 21 -27 9 -31 -19 -8 -19 -53 0 -78 13 -18 14
-17 21 8 3 14 4 33 0 41 -7 18 9 19 53 4 25 -9 38 -23 52 -56 10 -25 19 -51
19 -58 0 -7 14 -16 30 -20 17 -4 28 -11 24 -16 -3 -5 -14 -7 -25 -4 -18 6 -18
4 -4 -34 8 -23 10 -41 5 -41 -5 0 -13 -12 -16 -26 -4 -17 -9 -22 -14 -14 -4 7
-13 9 -19 6 -6 -4 -11 0 -11 8 0 9 -6 16 -12 16 -7 0 -3 8 10 18 23 17 21 32
-4 32 -7 0 -19 -7 -27 -15 -13 -13 -18 -12 -41 6 -15 12 -26 30 -26 45 0 13
-5 24 -10 24 -6 0 -16 5 -23 10 -7 6 -21 17 -32 25 -19 14 -19 14 7 15 40 0
43 16 9 59 -36 45 -37 49 -14 47 21 -1 30 33 11 45 -7 5 -9 9 -4 9 5 0 19 -11
32 -25z m239 -365 c3 -5 2 -10 -4 -10 -5 0 -13 5 -16 10 -3 6 -2 10 4 10 5 0
13 -4 16 -10z"/>
<path d="M4350 4249 c-18 -13 -20 -19 -9 -19 21 0 54 25 43 33 -5 3 -21 -3
-34 -14z"/>
<path d="M4280 4230 c0 -5 4 -10 9 -10 6 0 13 5 16 10 3 6 -1 10 -9 10 -9 0
-16 -4 -16 -10z"/>
<path d="M4366 4182 c-3 -6 -1 -14 5 -17 15 -10 25 3 12 16 -7 7 -13 7 -17 1z"/>
<path d="M1920 3070 c0 -313 2 -360 15 -360 18 0 19 -12 3 -28 -9 -9 0 -11 41
-7 49 4 52 3 45 -17 -5 -17 -3 -20 11 -15 9 4 20 7 25 7 5 0 7 11 5 25 -1 14
1 25 5 25 4 0 12 -11 18 -25 16 -36 27 -31 27 12 0 31 4 37 28 44 28 8 38 -4
12 -15 -9 -3 -15 -18 -15 -37 0 -26 2 -29 14 -20 8 7 25 9 38 6 17 -4 29 -1
39 11 12 15 12 18 -5 28 -11 6 -28 19 -38 29 -10 9 -27 17 -37 17 -23 0 -32
31 -33 120 -1 61 -1 62 -18 40 l-17 -23 -6 22 c-3 11 -1 21 3 21 5 0 7 21 5
46 -3 35 0 49 16 62 23 20 24 40 2 64 -15 17 -15 18 0 18 19 0 24 44 7 55 -8
5 -8 11 0 20 6 8 7 16 2 19 -5 3 -7 17 -5 30 4 20 0 28 -21 37 -17 8 -26 20
-26 36 0 12 3 23 8 23 4 0 13 9 20 20 11 18 9 22 -13 32 -14 6 -25 17 -25 25
0 9 -14 13 -44 13 -41 0 -45 -2 -49 -27 l-4 -28 -2 28 c0 17 -7 27 -16 27 -13
0 -15 -47 -15 -360z m70 -155 c0 -8 -4 -15 -10 -15 -5 0 -10 7 -10 15 0 8 5
15 10 15 6 0 10 -7 10 -15z m107 -137 c-3 -7 -5 -2 -5 12 0 14 2 19 5 13 2 -7
2 -19 0 -25z m-37 -52 c0 -2 -8 -10 -17 -17 -16 -13 -17 -12 -4 4 13 16 21 21
21 13z"/>
<path d="M2507 3373 c-4 -3 -7 -26 -7 -49 0 -30 5 -46 18 -53 15 -9 15 -10 0
-11 -14 0 -16 -22 -15 -218 l1 -218 24 -12 c14 -6 29 -9 33 -6 5 3 9 1 9 -5 0
-5 -5 -13 -10 -16 -6 -4 -8 -14 -6 -23 3 -10 2 -23 -3 -31 -7 -11 -11 -10 -19
5 -6 10 -13 16 -17 12 -10 -10 4 -48 17 -45 6 1 12 -8 13 -21 2 -25 42 -72 61
-72 6 0 14 -6 17 -14 12 -30 202 -47 274 -25 49 16 107 88 127 159 14 50 16
103 14 345 -1 160 -6 289 -11 292 -5 3 -13 -1 -18 -8 -5 -8 -9 -9 -9 -4 0 7
-33 12 -80 13 l-80 3 -2 -183 c-1 -163 -6 -363 -11 -425 -1 -15 -11 -24 -27
-28 -14 -3 -32 -8 -41 -11 -18 -5 -49 52 -49 91 0 13 -5 27 -10 30 -6 4 -7 13
-1 23 8 16 5 474 -4 500 -5 13 -176 18 -188 5z m454 -156 c-10 -9 -11 -8 -5 6
3 10 9 15 12 12 3 -3 0 -11 -7 -18z m-44 -139 c-3 -8 -6 -5 -6 6 -1 11 2 17 5
13 3 -3 4 -12 1 -19z m40 0 c-3 -8 -6 -5 -6 6 -1 11 2 17 5 13 3 -3 4 -12 1
-19z m-347 -388 c0 -5 -2 -10 -4 -10 -3 0 -8 5 -11 10 -3 6 -1 10 4 10 6 0 11
-4 11 -10z m-4 -47 c-10 -10 -19 5 -10 18 6 11 8 11 12 0 2 -7 1 -15 -2 -18z
m79 -23 c-10 -11 -23 -20 -29 -20 -6 1 0 10 13 20 30 26 39 26 16 0z"/>
<path d="M3296 3370 c-48 -5 -71 -12 -78 -23 -5 -10 -15 -17 -23 -17 -7 0 -23
-12 -35 -27 -19 -24 -21 -36 -15 -82 4 -30 9 -60 12 -67 3 -8 -7 -16 -27 -21
-29 -8 -33 -13 -35 -46 -1 -20 2 -37 7 -37 4 0 8 14 8 30 0 57 16 30 18 -30 1
-34 -3 -60 -8 -60 -6 0 -10 9 -10 20 0 11 -4 20 -10 20 -17 0 -5 -288 14 -333
25 -61 53 -94 99 -116 48 -23 171 -35 202 -18 11 5 47 10 81 9 71 -1 72 1 66
87 l-4 53 -61 -4 c-55 -4 -170 12 -183 25 -3 2 -8 37 -11 76 -3 39 -11 71 -16
71 -7 0 -7 4 1 12 16 16 16 180 0 196 -7 7 -8 12 -2 12 6 0 18 26 28 58 l17
59 115 -3 c104 -3 115 -2 112 14 -1 9 1 22 5 29 4 6 3 14 -2 17 -5 4 -5 21 -1
43 5 20 7 40 4 44 -6 10 -144 23 -152 14 -4 -3 4 -15 18 -26 20 -17 17 -16
-20 3 -40 21 -53 24 -114 18z m0 -61 c4 -8 1 -8 -14 0 -12 6 -24 16 -28 22 -4
8 -1 8 14 0 12 -6 24 -16 28 -22z m-86 -19 c0 -5 -4 -10 -10 -10 -5 0 -10 5
-10 10 0 6 5 10 10 10 6 0 10 -4 10 -10z m-20 -74 c0 -3 -4 -8 -10 -11 -5 -3
-10 -1 -10 4 0 6 5 11 10 11 6 0 10 -2 10 -4z m10 -92 c0 -8 -5 -12 -10 -9 -6
4 -8 11 -5 16 9 14 15 11 15 -7z m-37 -119 c4 -8 2 -17 -3 -20 -6 -4 -10 3
-10 14 0 25 6 27 13 6z m385 -397 c-2 -6 -10 -14 -16 -16 -7 -2 -10 2 -6 12 7
18 28 22 22 4z"/>
<path d="M3913 3233 l-58 -118 -5 105 -5 105 -75 2 c-41 0 -82 3 -90 5 -13 3
-15 -46 -17 -384 l-2 -387 33 1 c27 1 35 7 44 30 6 17 15 27 21 24 17 -11 41
6 41 28 0 11 9 35 20 51 15 22 19 40 15 70 -3 22 -1 56 3 75 l8 34 54 -104
c29 -58 65 -127 78 -154 l25 -48 83 4 c46 2 86 7 90 10 7 8 -63 140 -93 175
-13 14 -23 30 -23 35 0 11 -62 108 -82 128 -8 8 -13 26 -11 40 2 14 4 33 5 42
1 9 6 14 10 12 12 -8 9 11 -4 24 -9 9 -7 12 11 12 16 0 21 4 17 15 -3 9 0 15
7 15 8 0 24 19 36 41 19 34 21 43 10 50 -12 7 -11 9 1 10 8 1 18 1 23 0 4 0 7
7 7 17 0 9 8 22 19 29 23 14 73 102 65 114 -3 5 -50 9 -105 9 l-99 0 -57 -117z
m17 -310 c0 -12 -8 -18 -25 -18 -40 0 -29 32 13 34 6 1 12 -7 12 -16z"/>
<path d="M3110 3214 c0 -14 4 -23 10 -19 6 3 10 15 10 26 0 10 -4 19 -10 19
-5 0 -10 -12 -10 -26z"/>
<path d="M2367 2740 c-3 -8 -7 -27 -10 -42 -4 -24 -1 -28 19 -28 28 0 31 21 9
60 -10 19 -15 21 -18 10z"/>
<path d="M2432 2738 c-15 -15 -16 -55 -1 -63 15 -10 19 -3 26 39 6 37 -3 46
-25 24z"/>
<path d="M2267 2709 c-25 -28 -16 -33 29 -19 35 12 36 14 19 26 -25 18 -27 18
-48 -7z"/>
<path d="M1976 2651 c-3 -5 1 -11 9 -15 8 -3 15 -1 15 4 0 13 -18 22 -24 11z"/>
<path d="M2343 2629 c-5 -16 -11 -20 -32 -16 -15 3 -33 -1 -42 -9 -14 -13 -18
-13 -29 1 -11 14 -14 13 -27 -2 -14 -17 -14 -17 -9 -1 3 11 -2 22 -14 28 -26
14 -40 12 -40 -5 0 -8 -7 -15 -15 -15 -8 0 -15 -6 -15 -14 0 -25 -21 -29 -43
-8 -29 26 -105 29 -123 4 -13 -16 -13 -16 -14 1 0 30 -20 18 -20 -13 l0 -30
209 0 c114 0 236 3 270 6 l61 7 0 37 c0 34 -2 37 -21 33 -12 -4 -25 0 -30 8
-8 12 -11 12 -20 -1 -8 -11 -12 -12 -16 -2 -7 19 -24 14 -30 -9z"/>
<path d="M3477 2193 c-39 -3 -48 -7 -43 -20 4 -8 2 -21 -3 -27 -5 -6 -7 -38
-4 -71 l5 -60 64 3 64 4 1 -61 c3 -115 4 -136 12 -148 5 -7 6 -17 3 -22 -10
-16 -18 -375 -8 -406 7 -24 15 -31 39 -33 28 -3 32 0 38 28 5 23 11 29 23 26
25 -8 38 5 46 46 4 20 13 38 20 41 16 6 27 65 14 73 -5 3 -6 13 -4 22 3 10 7
45 8 80 1 34 5 62 8 62 3 0 6 16 7 35 2 19 -1 35 -6 35 -10 0 -9 27 4 73 9 35
-8 57 -49 58 -28 2 -27 2 9 8 38 6 40 8 43 43 l3 37 60 7 59 7 0 83 0 84 -31
0 c-17 0 -39 -5 -49 -10 -30 -16 -218 -19 -238 -3 -9 7 -24 12 -32 11 -8 -1
-37 -3 -63 -5z m71 -148 c3 -3 -20 -5 -52 -5 -34 0 -55 4 -51 10 6 9 93 5 103
-5z"/>
<path d="M5060 2184 c-8 -2 -53 -5 -100 -6 l-85 -3 -2 -38 c-2 -34 -1 -36 18
-26 11 5 24 20 28 31 5 14 10 17 15 10 7 -12 -38 -62 -55 -62 -5 0 -8 -155 -9
-345 l0 -345 83 0 c46 0 132 3 191 7 l107 6 -3 86 -3 86 -98 0 -99 0 -4 68
c-5 65 -4 68 21 77 15 6 37 10 51 10 13 0 24 6 24 13 0 9 2 9 9 -1 5 -8 22
-12 42 -10 l34 3 3 66 c3 79 -11 100 -55 80 -18 -8 -29 -9 -37 -1 -5 5 -27 10
-48 10 -45 0 -58 18 -48 71 4 22 9 41 11 43 2 2 43 6 90 9 47 2 91 7 97 11 17
10 16 142 0 149 -16 5 -157 7 -178 1z m-123 -436 c-3 -8 -6 -5 -6 6 -1 11 2
17 5 13 3 -3 4 -12 1 -19z"/>
<path d="M3960 1835 c0 -280 2 -315 16 -323 11 -6 13 -11 5 -16 -20 -13 -12
-29 12 -22 45 14 67 13 67 0 0 -22 18 -16 25 7 5 16 9 18 15 9 13 -21 27 -3
28 40 1 29 -2 40 -13 40 -19 0 -19 27 0 46 8 9 15 28 15 44 0 22 -4 28 -15 24
-16 -7 -18 -1 -15 66 1 25 8 52 16 61 16 18 18 45 4 54 -6 4 -7 12 -3 18 9 14
7 122 -2 137 -3 5 -13 10 -21 10 -19 0 -18 34 1 50 19 16 19 40 0 40 -9 0 -18
7 -21 15 -5 11 -21 15 -60 15 l-54 0 0 -315z m40 284 c0 -5 -4 -9 -10 -9 -5 0
-10 7 -10 16 0 8 5 12 10 9 6 -3 10 -10 10 -16z m20 -434 c0 -8 -2 -15 -4 -15
-2 0 -6 7 -10 15 -3 8 -1 15 4 15 6 0 10 -7 10 -15z"/>
<path d="M4187 2143 c-12 -11 -8 -621 4 -628 6 -4 8 -13 5 -20 -7 -20 4 -26
27 -13 16 8 23 7 32 -6 7 -9 21 -16 33 -16 13 0 22 -9 26 -26 9 -33 1 -41 -19
-21 -16 17 -76 13 -83 -5 -2 -4 -10 -8 -18 -8 -8 0 -14 -7 -14 -15 0 -19 103
-21 143 -2 23 10 27 19 29 57 1 40 1 100 -1 152 -1 9 -11 19 -23 21 l-23 4 23
2 c21 1 22 5 22 86 0 47 3 85 8 85 4 0 22 -38 41 -83 69 -165 75 -177 95 -177
21 0 45 27 46 51 0 9 7 22 15 29 8 7 15 24 15 37 0 14 9 36 20 50 11 14 24 42
30 62 5 20 16 45 25 56 15 20 15 20 30 1 8 -11 15 -31 14 -45 0 -14 -3 -20 -6
-13 -13 32 -19 2 -23 -115 -8 -256 -8 -258 18 -261 15 -2 22 2 22 12 0 9 5 16
10 16 6 0 10 -7 10 -16 0 -12 9 -14 43 -12 l42 3 3 300 c1 165 -1 307 -4 315
-4 8 -6 21 -5 29 2 10 -4 12 -23 7 -16 -4 -30 -1 -41 10 -9 9 -25 14 -35 11
-17 -4 -20 0 -20 24 0 26 2 28 18 20 25 -13 63 -8 91 11 37 26 16 38 -64 38
-78 0 -81 -2 -101 -55 -80 -212 -118 -305 -124 -305 -4 0 -19 30 -34 68 -16
37 -33 78 -38 92 -12 27 -14 33 -49 129 -24 65 -49 91 -49 52 0 -27 -24 -27
-50 -1 -19 19 -79 28 -93 13z m20 -35 c-3 -8 -6 -5 -6 6 -1 11 2 17 5 13 3 -3
4 -12 1 -19z m573 -279 c0 -6 -4 -7 -10 -4 -5 3 -10 11 -10 16 0 6 5 7 10 4 6
-3 10 -11 10 -16z m-550 -144 c0 -8 -2 -15 -4 -15 -2 0 -6 7 -10 15 -3 8 -1
15 4 15 6 0 10 -7 10 -15z m483 -205 c-3 -11 -7 -20 -9 -20 -2 0 -4 9 -4 20 0
11 4 20 9 20 5 0 7 -9 4 -20z m74 -72 c-3 -8 -6 -5 -6 6 -1 11 2 17 5 13 3 -3
4 -12 1 -19z"/>
<path d="M1368 2103 c-39 -3 -48 -8 -48 -23 0 -10 6 -21 13 -23 10 -4 10 -6 0
-6 -7 -1 -13 -8 -13 -16 0 -20 29 -8 58 23 22 25 22 25 22 3 0 -12 -4 -20 -8
-17 -9 5 -36 -22 -45 -45 -4 -10 -6 -10 -6 -1 -1 6 -5 12 -10 12 -5 0 -10
-161 -10 -381 l-1 -382 216 7 c119 4 223 10 231 13 11 4 13 26 11 97 l-3 91
-121 -4 -122 -3 -4 53 c-2 30 -1 68 2 84 5 29 8 30 63 33 46 2 57 6 57 20 1
16 1 16 11 0 11 -20 41 -23 70 -8 16 9 19 22 19 80 0 59 -3 71 -20 80 -16 8
-28 8 -48 -3 -24 -12 -30 -11 -41 1 -10 10 -26 13 -58 8 -39 -5 -45 -3 -52 17
-7 19 -6 106 2 113 1 1 54 5 117 8 72 4 117 11 122 19 5 7 7 44 6 82 l-3 70
-180 1 c-99 0 -201 -1 -227 -3z m-8 -267 c0 -3 -4 -8 -10 -11 -5 -3 -10 -1
-10 4 0 6 5 11 10 11 6 0 10 -2 10 -4z m37 -53 c-3 -10 -5 -4 -5 12 0 17 2 24
5 18 2 -7 2 -21 0 -30z m7 -139 c3 -8 2 -12 -4 -9 -6 3 -10 10 -10 16 0 14 7
11 14 -7z"/>
<path d="M2391 2090 c-13 -11 -33 -20 -46 -20 -29 0 -48 -22 -83 -100 -33 -70
-76 -129 -87 -118 -4 4 -3 13 1 20 20 32 12 58 -44 139 l-59 84 -116 2 c-94 2
-117 -1 -117 -12 0 -8 5 -17 10 -20 6 -4 22 -30 36 -58 14 -29 41 -68 59 -87
33 -36 130 -185 144 -223 5 -14 2 -26 -11 -39 -10 -10 -23 -38 -30 -62 -7 -27
-19 -46 -29 -49 -31 -8 -89 -107 -89 -152 0 -29 -3 -36 -10 -25 -5 8 -10 12
-12 10 -24 -33 -58 -88 -58 -93 0 -4 27 -6 60 -6 l60 2 6 36 c9 57 12 59 13 9
1 -43 3 -48 24 -48 12 0 32 -3 45 -6 13 -4 22 -2 22 5 0 5 -7 8 -16 4 -12 -4
-15 0 -12 18 2 17 13 27 38 35 19 6 40 20 45 30 56 107 87 137 102 97 8 -22
68 -113 88 -134 8 -9 15 -21 15 -27 0 -19 47 -25 138 -18 94 8 116 18 83 35
-15 9 -20 18 -15 35 4 16 -7 40 -38 87 -24 35 -68 100 -98 144 -60 87 -69 97
-88 90 -7 -2 -2 15 12 43 13 26 33 69 46 96 12 27 39 74 60 105 44 66 67 108
72 136 1 11 7 23 12 26 13 10 -3 29 -25 29 -11 0 -29 -5 -40 -10 -13 -7 -19
-7 -19 0 0 16 -23 11 -49 -10z m-226 -160 l20 -25 -22 19 c-13 11 -23 24 -23
29 0 6 1 8 3 6 1 -2 11 -15 22 -29z m125 -424 c0 -2 -8 -10 -17 -17 -16 -13
-17 -12 -4 4 13 16 21 21 21 13z m-257 -56 c-7 -27 -13 -25 -11 4 1 14 5 23 9
20 4 -2 5 -13 2 -24z"/>
<path d="M2649 2103 c-26 -4 -26 -6 -28 -84 l-2 -80 57 2 c52 3 58 1 67 -22 5
-13 9 -144 8 -294 0 -148 2 -278 5 -287 9 -29 62 -24 74 6 5 14 19 26 31 28
15 2 25 13 30 32 4 15 14 36 22 45 10 11 15 44 15 109 1 51 7 111 14 133 9 33
9 42 -2 49 -11 7 -11 16 -1 50 11 36 10 44 -4 60 -14 15 -14 18 -1 23 8 3 16
21 18 39 3 32 4 33 56 36 31 2 52 8 53 15 1 24 2 112 0 131 -1 17 -6 18 -48
11 -27 -4 -77 -9 -112 -11 -36 -2 -70 -5 -78 -8 -7 -3 -31 1 -54 9 -40 15 -66
16 -120 8z m31 -133 c12 -8 9 -10 -12 -10 -16 0 -28 5 -28 10 0 13 20 13 40 0z"/>
<path d="M1085 2081 l-40 -6 -2 -254 c-2 -140 -4 -256 -7 -258 -6 -7 -56 107
-56 129 0 24 -19 60 -37 71 -7 5 -11 12 -8 17 8 12 -65 150 -79 150 -29 0 -49
27 -48 64 1 31 -3 38 -24 46 -13 5 -27 17 -30 25 -4 8 -18 15 -35 15 l-28 0
-1 -300 c0 -236 2 -300 12 -300 10 0 10 -2 0 -8 -9 -7 -12 -40 -10 -133 l3
-124 25 3 c14 2 44 3 68 3 34 -1 42 3 42 18 0 10 -3 20 -6 23 -8 9 -5 302 4
366 l7 53 74 -148 c41 -81 79 -151 85 -156 6 -4 20 -5 30 -3 14 4 16 2 7 -7
-22 -22 -13 -39 18 -32 17 3 32 2 36 -4 3 -6 1 -11 -4 -11 -22 0 -10 -19 17
-28 27 -9 27 -9 4 -16 -18 -6 -22 -14 -20 -34 3 -24 8 -27 43 -30 22 -2 59 -1
81 3 40 6 42 7 41 41 -1 26 -5 34 -16 32 -9 -2 -17 -13 -19 -26 -4 -29 -16
-28 -41 4 -27 35 -26 42 4 40 14 0 25 -4 25 -8 0 -5 5 -8 10 -8 6 0 10 10 10
21 0 18 3 19 15 9 13 -11 14 34 12 376 l-2 389 -60 1 c-33 1 -78 -1 -100 -5z
m82 -383 c-3 -8 -6 -5 -6 6 -1 11 2 17 5 13 3 -3 4 -12 1 -19z m-211 -145 c-7
-7 -26 7 -26 19 0 6 6 6 15 -2 9 -7 13 -15 11 -17z m-209 -79 c-3 -3 -12 -4
-19 -1 -8 3 -5 6 6 6 11 1 17 -2 13 -5z m279 -61 c-10 -10 -19 5 -10 18 6 11
8 11 12 0 2 -7 1 -15 -2 -18z"/>
<path d="M4010 1449 c0 -5 5 -7 10 -4 6 3 10 8 10 11 0 2 -4 4 -10 4 -5 0 -10
-5 -10 -11z"/>
<path d="M4040 1423 c-37 -6 -70 -25 -70 -40 0 -10 18 -13 70 -13 39 0 70 4
70 8 0 8 -39 53 -43 51 -1 -1 -13 -4 -27 -6z"/>
</g>
</svg>
